<svg id="Layer_1" data-name="Layer 1" xmlns="http://www.w3.org/2000/svg" viewBox="0 0 598.47 598.47">
  <path d="M429.52,186.1c-.2-16.91-7.45-31.75-20.41-41.8-10.71-8.3-24.71-12.86-39.45-12.86h-.43c-14.7.09-28.58,4.72-39.09,13a50.67,50.67,0,0,0-18,28.18,48.71,48.71,0,0,0-18.74,77.67,48.67,48.67,0,0,0-.49,64,48.69,48.69,0,0,0,16.43,75.9,25.31,25.31,0,0,1-7.92,9.7c-6.9,5.27-16.9,8.29-27.44,8.29-11.35,0-29.15-4.13-35-18.32a48.7,48.7,0,0,0,15.72-75.57,48.67,48.67,0,0,0-.49-64,48.71,48.71,0,0,0-16-76.49c.85-3.21,2.14-5.5,3.86-6.82,3.73-2.88,11.19-4.12,19.09-5.44,13.76-2.29,30.87-5.14,43.36-19.35,8.73-9.93,13.35-23.3,14-41.08A48.73,48.73,0,0,0,346,62.46h.74a2.8,2.8,0,0,0,2.8-2.8V13.84a2.8,2.8,0,0,0-2.8-2.8H249.49a2.8,2.8,0,0,0-2.8,2.8V59.66a2.8,2.8,0,0,0,2.8,2.8h.77c1.92,18.7,13.92,34.23,30.72,40.47-.74,8.58-2.89,12.69-4.59,14.62-3.69,4.2-11.91,5.57-21.42,7.15-11.54,1.93-24.62,4.11-35.77,12.7-10.44,8-16.63,19.6-18.78,35.07a48.71,48.71,0,0,0-19.22,77.86,48.67,48.67,0,0,0-.49,64,48.7,48.7,0,0,0,19.95,77.38,61.26,61.26,0,0,0,23.66,38.22c13.33,10.11,31,15.68,49.62,15.68,18.85,0,36.65-5.67,50.13-16a62.38,62.38,0,0,0,23.78-38.33,48.7,48.7,0,0,0,18.93-77,48.67,48.67,0,0,0-.49-64,48.69,48.69,0,0,0-14.1-75.56c5.53-5.49,14.79-5.93,17.26-5.94,2.3-.06,22.48.37,22.69,17.71V378.35c0,21.7-4.66,36.53-14.27,45.33-8.79,8.07-21.76,11.77-35.49,15.69-14,4-28.46,8.12-40.38,17.5-14.59,11.47-22,28.47-22,50.52l-.55,31.87,1.05,45.9a2.34,2.34,0,0,0,2.34,2.27H313.4a2.34,2.34,0,0,0,2.35-2.27l1.05-45.9.56-31.54c0-21.11,8.47-24.75,35.26-32.4,30.62-8.73,76.9-21.94,76.9-97Z"/>
</svg>
